<svg width="200" height="120" viewBox="0 0 200 120" xmlns="http://www.w3.org/2000/svg">
  <!-- Left bracket structure -->
  <g fill="#7CB342">
    <!-- Top left corner -->
    <rect x="10" y="15" width="20" height="12" />
    <rect x="10" y="27" width="12" height="8" />
    
    <!-- Middle left extension -->
    <rect x="10" y="35" width="30" height="12" />
    <rect x="10" y="47" width="12" height="8" />
    
    <!-- Center left extension (longest) -->
    <rect x="10" y="55" width="40" height="12" />
    <rect x="10" y="67" width="12" height="8" />
    
    <!-- Lower middle left -->
    <rect x="10" y="75" width="30" height="12" />
    <rect x="10" y="87" width="12" height="8" />
    
    <!-- Bottom left corner -->
    <rect x="10" y="95" width="20" height="12" />
  </g>
  
  <!-- Right bracket structure (mirrored) -->
  <g fill="#7CB342">
    <!-- Top right corner -->
    <rect x="170" y="15" width="20" height="12" />
    <rect x="178" y="27" width="12" height="8" />
    
    <!-- Middle right extension -->
    <rect x="160" y="35" width="30" height="12" />
    <rect x="178" y="47" width="12" height="8" />
    
    <!-- Center right extension (longest) -->
    <rect x="150" y="55" width="40" height="12" />
    <rect x="178" y="67" width="12" height="8" />
    
    <!-- Lower middle right -->
    <rect x="160" y="75" width="30" height="12" />
    <rect x="178" y="87" width="12" height="8" />
    
    <!-- Bottom right corner -->
    <rect x="170" y="95" width="20" height="12" />
  </g>
  
  <!-- Center content area -->
  <rect x="65" y="25" width="70" height="70" fill="#F8F8F8" stroke="#E8E8E8" stroke-width="1" rx="8"/>
  
  <!-- Geometric patterns in center -->
  <!-- Top row circles -->
  <circle cx="85" cy="40" r="6" fill="none" stroke="#D5D5D5" stroke-width="1.5"/>
  <circle cx="100" cy="40" r="6" fill="none" stroke="#D5D5D5" stroke-width="1.5"/>
  <circle cx="115" cy="40" r="6" fill="none" stroke="#D5D5D5" stroke-width="1.5"/>
  
  <!-- Middle decorative elements -->
  <rect x="80" y="52" width="10" height="10" fill="none" stroke="#D5D5D5" stroke-width="1.5" rx="2"/>
  <rect x="95" y="52" width="10" height="10" fill="none" stroke="#D5D5D5" stroke-width="1.5" rx="2"/>
  <rect x="110" y="52" width="10" height="10" fill="none" stroke="#D5D5D5" stroke-width="1.5" rx="2"/>
  
  <!-- Bottom row circles -->
  <circle cx="85" cy="75" r="5" fill="none" stroke="#D5D5D5" stroke-width="1.5"/>
  <circle cx="100" cy="75" r="5" fill="none" stroke="#D5D5D5" stroke-width="1.5"/>
  <circle cx="115" cy="75" r="5" fill="none" stroke="#D5D5D5" stroke-width="1.5"/>
</svg>
